# xmcd
#
# Track frame offsets: 
#        150
#        16663
#        28743
#        48018
#        55970
#        69470
#        82525
#        91290
#        104948
#        118143
#        125935
#        142445
#        166743
#        187145
#        198620
#        214600
#        227655
#        241015
#        252698
#        266268
#        278348
#        291328
#        309393
#        321590
#
# Disc length: 4449 seconds
#
# Revision: 4
# Processed by: cddbd v1.5.2PL0 Copyright (c) Steve Scherf et al.
# Submitted via: ExactAudioCopy v1.0b3
#
DISCID=66115f18
DTITLE=Popeda - Peetlehemin Pesäveikot
DYEAR=1900
DGENRE=Country
TTITLE0=Optinen O
TTITLE1=Kovan Pojan Blues
TTITLE2=Omia Ollaan
TTITLE3=Hei Mies
TTITLE4=Hei Mies Räp
TTITLE5=Verkot Soi
TTITLE6=Sammakkalaulu
TTITLE7=Lauri Lutavuori
TTITLE8=Koulu
TTITLE9=Bebobbahobbin`
TTITLE10=Onnellinen Mies
TTITLE11=Sukset
TTITLE12=Hyvä Kankkunen
TTITLE13=Silimiklasikyy
TTITLE14=Maailma Palaa
TTITLE15=Yka Kysta Kimma
TTITLE16=Nyrkki-kyllikki
TTITLE17=Hjulapata
TTITLE18=Tuomas Parka
TTITLE19=Mikä Vika Mussa On
TTITLE20=Potkurilakki
TTITLE21=Valkoisessa Huoneessa
TTITLE22=Luumäkirock
TTITLE23=Sen Kunniaksi
EXTD=
EXTT0=
EXTT1=
EXTT2=
EXTT3=
EXTT4=
EXTT5=
EXTT6=
EXTT7=
EXTT8=
EXTT9=
EXTT10=
EXTT11=
EXTT12=
EXTT13=
EXTT14=
EXTT15=
EXTT16=
EXTT17=
EXTT18=
EXTT19=
EXTT20=
EXTT21=
EXTT22=
EXTT23=
PLAYORDER=
